<?xml version="1.0" encoding="UTF-8" standalone="no"?>
<svg width="153px" height="35px" viewBox="0 0 153 35" version="1.1" xmlns="http://www.w3.org/2000/svg" xmlns:xlink="http://www.w3.org/1999/xlink" xmlns:sketch="http://www.bohemiancoding.com/sketch/ns">
    <!-- Generator: Sketch 3.3.3 (12081) - http://www.bohemiancoding.com/sketch -->
    <title>Segment</title>
    <desc>Created with Sketch.</desc>
    <defs></defs>
    <g id="New" stroke="none" stroke-width="1" fill="none" fill-rule="evenodd" sketch:type="MSPage">
        <g id="Segment" sketch:type="MSArtboardGroup">
            <path d="M8,2 L38,2 L45,9 L23,33 L1,9 L8,2 Z" id="Path-1-Copy" fill="#FF5F5F" sketch:type="MSShapeGroup"></path>
            <path d="M62.605957,2.75116627 L59.1782227,2.75116627 L59.1782227,12.2580022 L57.7792969,12.2580022 L57.7792969,2.75116627 L54.3588867,2.75116627 L54.3588867,1.59393971 L62.605957,1.59393971 L62.605957,2.75116627 Z M71.5191212,7.94403737 L69.0142384,7.94403737 L69.0142384,12.2580022 L67.6006641,12.2580022 L67.6006641,1.59393971 L71.1309376,1.59393971 C72.3321155,1.59393971 73.2561785,1.86737448 73.9031544,2.41425221 C74.5501303,2.96112994 74.8736134,3.75702042 74.8736134,4.80194752 C74.8736134,5.46601334 74.6941718,6.04462084 74.3352833,6.53778737 C73.9763948,7.03095389 73.4771322,7.39960255 72.8374805,7.6437444 L75.3423634,12.1701116 L75.3423634,12.2580022 L73.8335743,12.2580022 L71.5191212,7.94403737 Z M69.0142384,6.79413502 L71.1748829,6.79413502 C71.5557442,6.79413502 71.8889928,6.74164531 72.1746387,6.63666432 C72.4602847,6.53168333 72.6983194,6.39008318 72.8887501,6.21185963 C73.0791807,6.03363608 73.2220016,5.82367725 73.3172169,5.58197682 C73.4124322,5.34027639 73.4600391,5.08026923 73.4600391,4.80194752 C73.4600391,4.4943288 73.4148736,4.21479058 73.3245411,3.96332448 C73.2342086,3.71185837 73.0938292,3.49579608 72.9033985,3.31513112 C72.7129679,3.13446615 72.4712711,2.99530739 72.1783009,2.89765065 C71.8853306,2.79999391 71.536213,2.75116627 71.1309376,2.75116627 L69.0142384,2.75116627 L69.0142384,6.79413502 Z M86.2916603,7.32880299 L81.6700783,7.32880299 L81.6700783,11.1080999 L87.0387306,11.1080999 L87.0387306,12.2580022 L80.2638283,12.2580022 L80.2638283,1.59393971 L86.9654884,1.59393971 L86.9654884,2.75116627 L81.6700783,2.75116627 L81.6700783,6.17890065 L86.2916603,6.17890065 L86.2916603,7.32880299 Z M98.0978909,9.47479909 L93.6301174,9.47479909 L92.6266994,12.2580022 L91.1765041,12.2580022 L95.2487698,1.59393971 L96.4792385,1.59393971 L100.558828,12.2580022 L99.1159573,12.2580022 L98.0978909,9.47479909 Z M94.0549221,8.31757252 L97.6804104,8.31757252 L95.8640041,3.32977955 L94.0549221,8.31757252 Z M111.097969,9.56268971 C111.097969,9.31366503 111.060128,9.09394066 110.984444,8.90351002 C110.90876,8.71307938 110.774484,8.53852058 110.581612,8.37982838 C110.38874,8.22113618 110.128732,8.07221189 109.801582,7.93305104 C109.474432,7.79389019 109.059397,7.65106935 108.556465,7.50458424 C108.029119,7.3532163 107.551829,7.18109888 107.12458,6.98822682 C106.697332,6.79535476 106.333566,6.57318901 106.033272,6.32172291 C105.732977,6.07025681 105.502267,5.78339445 105.341133,5.46112721 C105.179999,5.13885997 105.099434,4.77021132 105.099434,4.35517018 C105.099434,3.94012904 105.186103,3.5556114 105.359444,3.20160573 C105.532784,2.84760005 105.778143,2.53998594 106.095528,2.27875416 C106.412912,2.01752239 106.793768,1.81366701 107.238106,1.6671819 C107.682444,1.52069679 108.178044,1.44745534 108.724922,1.44745534 C109.325511,1.44745534 109.860174,1.53778646 110.328926,1.71845143 C110.797678,1.89911639 111.191962,2.13837181 111.511787,2.43622487 C111.831613,2.73407792 112.074531,3.07831276 112.240547,3.46893971 C112.406564,3.85956666 112.489571,4.26239467 112.489571,4.6774358 L111.075996,4.6774358 C111.075996,4.37958275 111.028389,4.1037066 110.933174,3.84979909 C110.837959,3.59589157 110.692697,3.3761672 110.497383,3.1906194 C110.30207,3.00507159 110.057931,2.86103007 109.764961,2.75849049 C109.471991,2.65595092 109.125315,2.6046819 108.724922,2.6046819 C108.348944,2.6046819 108.021799,2.64862677 107.743477,2.73651784 C107.465155,2.8244089 107.235665,2.9452573 107.055,3.09906666 C106.874335,3.25287603 106.740059,3.43475897 106.652168,3.64472096 C106.564277,3.85468295 106.520332,4.08417284 106.520332,4.33319752 C106.520332,4.55780802 106.567939,4.76288409 106.663155,4.9484319 C106.75837,5.1339797 106.906074,5.30487643 107.10627,5.46112721 C107.306466,5.61737799 107.564032,5.76141952 107.878975,5.89325612 C108.193918,6.02509271 108.571111,6.15204457 109.010567,6.27411549 C109.616038,6.44501478 110.138494,6.63422188 110.57795,6.84174244 C111.017405,7.04926301 111.37995,7.28485636 111.665596,7.54852955 C111.951242,7.81220275 112.163642,8.10760995 112.302803,8.43476002 C112.441964,8.7619101 112.511543,9.13300013 112.511543,9.54804127 C112.511543,9.98261376 112.423654,10.3756762 112.247871,10.7272405 C112.072089,11.0788047 111.821848,11.3790947 111.497139,11.6281194 C111.17243,11.8771441 110.781809,12.0687926 110.325264,12.2030706 C109.868719,12.3373486 109.359691,12.4044866 108.798164,12.4044866 C108.471014,12.4044866 108.143869,12.3739693 107.816719,12.3129339 C107.489569,12.2518984 107.175851,12.1603466 106.875557,12.0382756 C106.575262,11.9162047 106.296945,11.7648391 106.040596,11.5841741 C105.784247,11.4035091 105.560861,11.1935503 105.37043,10.9542913 C105.179999,10.7150323 105.031075,10.4464803 104.923653,10.1486272 C104.81623,9.85077416 104.76252,9.52362899 104.76252,9.1671819 L106.176094,9.1671819 C106.176094,9.53339467 106.248115,9.84711223 106.392159,10.108344 C106.536202,10.3695758 106.729071,10.5856381 106.970772,10.7565374 C107.212472,10.9274367 107.49079,11.0531678 107.805733,11.1337346 C108.120676,11.2143014 108.451483,11.2545842 108.798164,11.2545842 C109.540356,11.2545842 110.109198,11.1032186 110.504707,10.8004827 C110.900217,10.4977468 111.097969,10.0851533 111.097969,9.56268971 L111.097969,9.56268971 Z M125.240625,1.59393971 L125.240625,8.8156194 C125.240625,9.41620834 125.135646,9.94110543 124.925684,10.3903264 C124.715722,10.8395474 124.433742,11.2130788 124.079737,11.5109319 C123.725731,11.8087849 123.314358,12.0321714 122.845606,12.1810979 C122.376854,12.3300244 121.883694,12.4044866 121.366114,12.4044866 C120.824119,12.4044866 120.318753,12.3300244 119.85,12.1810979 C119.381248,12.0321714 118.974758,11.8087849 118.630518,11.5109319 C118.286278,11.2130788 118.015285,10.8395474 117.81753,10.3903264 C117.619775,9.94110543 117.520899,9.41620834 117.520899,8.8156194 L117.520899,1.59393971 L118.9125,1.59393971 L118.9125,8.8156194 C118.9125,9.23066054 118.972314,9.59076436 119.091944,9.89594166 C119.211573,10.201119 119.378808,10.4550227 119.593653,10.6576604 C119.808498,10.8602981 120.066063,11.0104431 120.366358,11.1080999 C120.666652,11.2057566 120.999901,11.2545842 121.366114,11.2545842 C121.737209,11.2545842 122.07412,11.2057566 122.376856,11.1080999 C122.679592,11.0104431 122.938378,10.8602981 123.153223,10.6576604 C123.368068,10.4550227 123.534082,10.201119 123.65127,9.89594166 C123.768458,9.59076436 123.827051,9.23066054 123.827051,8.8156194 L123.827051,1.59393971 L125.240625,1.59393971 Z M134.790997,7.94403737 L132.286114,7.94403737 L132.286114,12.2580022 L130.87254,12.2580022 L130.87254,1.59393971 L134.402813,1.59393971 C135.603991,1.59393971 136.528054,1.86737448 137.17503,2.41425221 C137.822006,2.96112994 138.145489,3.75702042 138.145489,4.80194752 C138.145489,5.46601334 137.966047,6.04462084 137.607159,6.53778737 C137.24827,7.03095389 136.749008,7.39960255 136.109356,7.6437444 L138.614239,12.1701116 L138.614239,12.2580022 L137.10545,12.2580022 L134.790997,7.94403737 Z M132.286114,6.79413502 L134.446758,6.79413502 C134.82762,6.79413502 135.160868,6.74164531 135.446514,6.63666432 C135.73216,6.53168333 135.970195,6.39008318 136.160625,6.21185963 C136.351056,6.03363608 136.493877,5.82367725 136.589092,5.58197682 C136.684308,5.34027639 136.731915,5.08026923 136.731915,4.80194752 C136.731915,4.4943288 136.686749,4.21479058 136.596416,3.96332448 C136.506084,3.71185837 136.365705,3.49579608 136.175274,3.31513112 C135.984843,3.13446615 135.743146,2.99530739 135.450176,2.89765065 C135.157206,2.79999391 134.808088,2.75116627 134.402813,2.75116627 L132.286114,2.75116627 L132.286114,6.79413502 Z M149.563536,7.32880299 L144.941954,7.32880299 L144.941954,11.1080999 L150.310606,11.1080999 L150.310606,12.2580022 L143.535704,12.2580022 L143.535704,1.59393971 L150.237364,1.59393971 L150.237364,2.75116627 L144.941954,2.75116627 L144.941954,6.17890065 L149.563536,6.17890065 L149.563536,7.32880299 Z M56.237793,31.2580022 L56.237793,20.5939397 L59.2480469,20.5939397 C59.9511754,20.5939397 60.5908174,20.711126 61.1669922,20.9455022 C61.7431669,21.1798784 62.2375468,21.5143477 62.6501465,21.9489202 C63.0627462,22.3834927 63.3825672,22.9108311 63.6096191,23.5309514 C63.8366711,24.1510717 63.9501953,24.8468655 63.9501953,25.6183538 L63.9501953,26.2482366 C63.9501953,27.0197248 63.8366711,27.7155186 63.6096191,28.3356389 C63.3825672,28.9557592 63.0603048,29.481877 62.6428223,29.9140081 C62.2253397,30.3461391 61.718753,30.6781671 61.1230469,30.9101018 C60.5273408,31.1420366 59.8608435,31.2580022 59.1235352,31.2580022 L56.237793,31.2580022 Z M57.644043,21.7511663 L57.644043,30.1080999 L59.1235352,30.1080999 C59.6899442,30.1080999 60.1879861,30.016548 60.6176758,29.8334417 C61.0473654,29.6503353 61.4062486,29.3903281 61.6943359,29.0534124 C61.9824233,28.7164966 62.1984856,28.3112272 62.3425293,27.8375921 C62.486573,27.3639569 62.5585938,26.834177 62.5585938,26.2482366 L62.5585938,25.5963811 C62.5585938,24.9860265 62.4853523,24.442819 62.3388672,23.9667424 C62.1923821,23.4906658 61.9775405,23.0878378 61.6943359,22.7582464 C61.4111314,22.4286549 61.0644552,22.1784132 60.6542969,22.0075139 C60.2441386,21.8366146 59.7753933,21.7511663 59.2480469,21.7511663 L57.644043,21.7511663 Z M75.2290821,28.4747991 L70.7613087,28.4747991 L69.7578907,31.2580022 L68.3076954,31.2580022 L72.379961,20.5939397 L73.6104298,20.5939397 L77.6900196,31.2580022 L76.2471485,31.2580022 L75.2290821,28.4747991 Z M71.1861134,27.3175725 L74.8116016,27.3175725 L72.9951954,22.3297796 L71.1861134,27.3175725 Z M88.9689064,21.7511663 L85.541172,21.7511663 L85.541172,31.2580022 L84.1422462,31.2580022 L84.1422462,21.7511663 L80.7218361,21.7511663 L80.7218361,20.5939397 L88.9689064,20.5939397 L88.9689064,21.7511663 Z M98.8596096,28.4747991 L94.3918362,28.4747991 L93.3884182,31.2580022 L91.9382229,31.2580022 L96.0104885,20.5939397 L97.2409573,20.5939397 L101.320547,31.2580022 L99.877676,31.2580022 L98.8596096,28.4747991 Z M94.8166409,27.3175725 L98.4421291,27.3175725 L96.6257229,22.3297796 L94.8166409,27.3175725 Z" id="TREASURE" fill="#122A41" sketch:type="MSShapeGroup"></path>
        </g>
    </g>
</svg>